<?xml version="1.0" encoding="UTF-8"?>
<svg xmlns="http://www.w3.org/2000/svg" width="1791.979" height="1070.487" viewBox="0 0 1791.979 1070.487">
  <defs>
    <style>
      .cls-1 {
        fill: #ff5559;
      }

      .cls-2 {
        fill: #ffee3f;
      }

      .cls-3 {
        fill: #ff972a;
      }

      .cls-4 {
        fill: #00e0e9;
      }

      .cls-5 {
        fill: #3fff5c;
      }

      .cls-6 {
        fill: #ff55cb;
      }
    </style>
  </defs>
  <g id="Layer_1" data-name="Layer 1">
    <g>
      <g>
        <rect class="cls-3" x=".5" y=".5" width="167.622" height="167.622"/>
        <path class="cls-3" d="M167.621,1v166.621H1V1h166.621M168.621,0H0v168.621h168.621V0h0Z"/>
      </g>
      <g>
        <rect class="cls-4" x="180.873" y=".5" width="167.622" height="167.622"/>
        <path class="cls-4" d="M347.994,1v166.621h-166.621V1h166.621M348.994,0h-168.621v168.621h168.621V0h0Z"/>
      </g>
      <g>
        <rect class="cls-2" x="361.246" y=".5" width="167.622" height="167.622"/>
        <path class="cls-2" d="M528.368,1v166.621h-166.621V1h166.621M529.368,0h-168.621v168.621h168.621V0h0Z"/>
      </g>
      <g>
        <rect class="cls-5" x="541.619" y=".5" width="167.622" height="167.622"/>
        <path class="cls-5" d="M708.741,1v166.621h-166.621V1h166.621M709.741,0h-168.621v168.621h168.621V0h0Z"/>
      </g>
      <g>
        <rect class="cls-6" x="721.992" y=".5" width="167.622" height="167.622"/>
        <path class="cls-6" d="M889.114,1v166.621h-166.621V1h166.621M890.114,0h-168.621v168.621h168.621V0h0Z"/>
      </g>
      <g>
        <rect class="cls-2" x="902.366" y=".5" width="167.622" height="167.622"/>
        <path class="cls-2" d="M1069.487,1v166.621h-166.621V1h166.621M1070.487,0h-168.621v168.621h168.621V0h0Z"/>
      </g>
      <g>
        <rect class="cls-3" x="1082.739" y=".5" width="167.622" height="167.622"/>
        <path class="cls-3" d="M1249.86,1v166.621h-166.621V1h166.621M1250.86,0h-168.621v168.621h168.621V0h0Z"/>
      </g>
      <g>
        <rect class="cls-1" x="1263.112" y=".5" width="167.622" height="167.622"/>
        <path class="cls-1" d="M1430.233,1v166.621h-166.621V1h166.621M1431.233,0h-168.621v168.621h168.621V0h0Z"/>
      </g>
      <g>
        <rect class="cls-2" x="1443.485" y=".5" width="167.622" height="167.622"/>
        <path class="cls-2" d="M1610.606,1v166.621h-166.621V1h166.621M1611.606,0h-168.621v168.621h168.621V0h0Z"/>
      </g>
      <g>
        <rect class="cls-4" x="1623.858" y=".5" width="167.622" height="167.622"/>
        <path class="cls-4" d="M1790.979,1v166.621h-166.621V1h166.621M1791.979,0h-168.621v168.621h168.621V0h0Z"/>
      </g>
      <g>
        <rect class="cls-1" x=".5" y="180.873" width="167.622" height="167.622"/>
        <path class="cls-1" d="M167.621,181.373v166.621H1v-166.621h166.621M168.621,180.373H0v168.621h168.621v-168.621h0Z"/>
      </g>
      <g>
        <rect class="cls-6" x="180.873" y="180.873" width="167.622" height="167.622"/>
        <path class="cls-6" d="M347.994,181.373v166.621h-166.621v-166.621h166.621M348.994,180.373h-168.621v168.621h168.621v-168.621h0Z"/>
      </g>
      <g>
        <rect class="cls-3" x="361.246" y="180.873" width="167.622" height="167.622"/>
        <path class="cls-3" d="M528.368,181.373v166.621h-166.621v-166.621h166.621M529.368,180.373h-168.621v168.621h168.621v-168.621h0Z"/>
      </g>
      <g>
        <rect class="cls-1" x="541.619" y="180.873" width="167.622" height="167.622"/>
        <path class="cls-1" d="M708.741,181.373v166.621h-166.621v-166.621h166.621M709.741,180.373h-168.621v168.621h168.621v-168.621h0Z"/>
      </g>
      <g>
        <rect class="cls-4" x="721.992" y="180.873" width="167.622" height="167.622"/>
        <path class="cls-4" d="M889.114,181.373v166.621h-166.621v-166.621h166.621M890.114,180.373h-168.621v168.621h168.621v-168.621h0Z"/>
      </g>
      <g>
        <rect class="cls-1" x="902.366" y="180.873" width="167.622" height="167.622"/>
        <path class="cls-1" d="M1069.487,181.373v166.621h-166.621v-166.621h166.621M1070.487,180.373h-168.621v168.621h168.621v-168.621h0Z"/>
      </g>
      <g>
        <rect class="cls-5" x="1082.739" y="180.873" width="167.622" height="167.622"/>
        <path class="cls-5" d="M1249.86,181.373v166.621h-166.621v-166.621h166.621M1250.86,180.373h-168.621v168.621h168.621v-168.621h0Z"/>
      </g>
      <g>
        <rect class="cls-4" x="1263.112" y="180.873" width="167.622" height="167.622"/>
        <path class="cls-4" d="M1430.233,181.373v166.621h-166.621v-166.621h166.621M1431.233,180.373h-168.621v168.621h168.621v-168.621h0Z"/>
      </g>
      <g>
        <rect class="cls-6" x="1443.485" y="180.873" width="167.622" height="167.622"/>
        <path class="cls-6" d="M1610.606,181.373v166.621h-166.621v-166.621h166.621M1611.606,180.373h-168.621v168.621h168.621v-168.621h0Z"/>
      </g>
      <g>
        <rect class="cls-3" x="1623.858" y="180.873" width="167.622" height="167.622"/>
        <path class="cls-3" d="M1790.979,181.373v166.621h-166.621v-166.621h166.621M1791.979,180.373h-168.621v168.621h168.621v-168.621h0Z"/>
      </g>
      <g>
        <rect class="cls-4" x=".5" y="361.246" width="167.622" height="167.622"/>
        <path class="cls-4" d="M167.621,361.746v166.621H1v-166.621h166.621M168.621,360.746H0v168.621h168.621v-168.621h0Z"/>
      </g>
      <g>
        <rect class="cls-5" x="180.873" y="361.246" width="167.622" height="167.622"/>
        <path class="cls-5" d="M347.994,361.746v166.621h-166.621v-166.621h166.621M348.994,360.746h-168.621v168.621h168.621v-168.621h0Z"/>
      </g>
      <g>
        <rect class="cls-4" x="361.246" y="361.246" width="167.622" height="167.622"/>
        <path class="cls-4" d="M528.368,361.746v166.621h-166.621v-166.621h166.621M529.368,360.746h-168.621v168.621h168.621v-168.621h0Z"/>
      </g>
      <g>
        <rect class="cls-6" x="541.619" y="361.246" width="167.622" height="167.622"/>
        <path class="cls-6" d="M708.741,361.746v166.621h-166.621v-166.621h166.621M709.741,360.746h-168.621v168.621h168.621v-168.621h0Z"/>
      </g>
      <g>
        <rect class="cls-3" x="721.992" y="361.246" width="167.622" height="167.622"/>
        <path class="cls-3" d="M889.114,361.746v166.621h-166.621v-166.621h166.621M890.114,360.746h-168.621v168.621h168.621v-168.621h0Z"/>
      </g>
      <g>
        <rect class="cls-2" x="902.366" y="361.246" width="167.622" height="167.622"/>
        <path class="cls-2" d="M1069.487,361.746v166.621h-166.621v-166.621h166.621M1070.487,360.746h-168.621v168.621h168.621v-168.621h0Z"/>
      </g>
      <g>
        <rect class="cls-6" x="1082.739" y="361.246" width="167.622" height="167.622"/>
        <path class="cls-6" d="M1249.86,361.746v166.621h-166.621v-166.621h166.621M1250.86,360.746h-168.621v168.621h168.621v-168.621h0Z"/>
      </g>
      <g>
        <rect class="cls-3" x="1263.112" y="361.246" width="167.622" height="167.622"/>
        <path class="cls-3" d="M1430.233,361.746v166.621h-166.621v-166.621h166.621M1431.233,360.746h-168.621v168.621h168.621v-168.621h0Z"/>
      </g>
      <g>
        <rect class="cls-1" x="1443.485" y="361.246" width="167.622" height="167.622"/>
        <path class="cls-1" d="M1610.606,361.746v166.621h-166.621v-166.621h166.621M1611.606,360.746h-168.621v168.621h168.621v-168.621h0Z"/>
      </g>
      <g>
        <rect class="cls-5" x="1623.858" y="361.246" width="167.622" height="167.622"/>
        <path class="cls-5" d="M1790.979,361.746v166.621h-166.621v-166.621h166.621M1791.979,360.746h-168.621v168.621h168.621v-168.621h0Z"/>
      </g>
      <g>
        <rect class="cls-2" x=".5" y="541.619" width="167.622" height="167.622"/>
        <path class="cls-2" d="M167.621,542.119v166.621H1v-166.621h166.621M168.621,541.119H0v168.621h168.621v-168.621h0Z"/>
      </g>
      <g>
        <rect class="cls-3" x="180.873" y="541.619" width="167.622" height="167.622"/>
        <path class="cls-3" d="M347.994,542.119v166.621h-166.621v-166.621h166.621M348.994,541.119h-168.621v168.621h168.621v-168.621h0Z"/>
      </g>
      <g>
        <rect class="cls-2" x="361.246" y="541.619" width="167.622" height="167.622"/>
        <path class="cls-2" d="M528.368,542.119v166.621h-166.621v-166.621h166.621M529.368,541.119h-168.621v168.621h168.621v-168.621h0Z"/>
      </g>
      <g>
        <rect class="cls-5" x="541.619" y="541.619" width="167.622" height="167.622"/>
        <path class="cls-5" d="M708.741,542.119v166.621h-166.621v-166.621h166.621M709.741,541.119h-168.621v168.621h168.621v-168.621h0Z"/>
      </g>
      <g>
        <rect class="cls-1" x="721.992" y="541.619" width="167.622" height="167.622"/>
        <path class="cls-1" d="M889.114,542.119v166.621h-166.621v-166.621h166.621M890.114,541.119h-168.621v168.621h168.621v-168.621h0Z"/>
      </g>
      <g>
        <rect class="cls-4" x="902.366" y="541.619" width="167.622" height="167.622"/>
        <path class="cls-4" d="M1069.487,542.119v166.621h-166.621v-166.621h166.621M1070.487,541.119h-168.621v168.621h168.621v-168.621h0Z"/>
      </g>
      <g>
        <rect class="cls-1" x="1082.739" y="541.619" width="167.622" height="167.622"/>
        <path class="cls-1" d="M1249.86,542.119v166.621h-166.621v-166.621h166.621M1250.86,541.119h-168.621v168.621h168.621v-168.621h0Z"/>
      </g>
      <g>
        <rect class="cls-2" x="1263.112" y="541.619" width="167.622" height="167.622"/>
        <path class="cls-2" d="M1430.233,542.119v166.621h-166.621v-166.621h166.621M1431.233,541.119h-168.621v168.621h168.621v-168.621h0Z"/>
      </g>
      <g>
        <rect class="cls-4" x="1443.485" y="541.619" width="167.622" height="167.622"/>
        <path class="cls-4" d="M1610.606,542.119v166.621h-166.621v-166.621h166.621M1611.606,541.119h-168.621v168.621h168.621v-168.621h0Z"/>
      </g>
      <g>
        <rect class="cls-2" x="1623.858" y="541.619" width="167.622" height="167.622"/>
        <path class="cls-2" d="M1790.979,542.119v166.621h-166.621v-166.621h166.621M1791.979,541.119h-168.621v168.621h168.621v-168.621h0Z"/>
      </g>
      <g>
        <rect class="cls-6" x=".5" y="721.992" width="167.622" height="167.622"/>
        <path class="cls-6" d="M167.621,722.492v166.621H1v-166.621h166.621M168.621,721.492H0v168.621h168.621v-168.621h0Z"/>
      </g>
      <g>
        <rect class="cls-1" x="180.873" y="721.992" width="167.622" height="167.622"/>
        <path class="cls-1" d="M347.994,722.492v166.621h-166.621v-166.621h166.621M348.994,721.492h-168.621v168.621h168.621v-168.621h0Z"/>
      </g>
      <g>
        <rect class="cls-4" x="361.246" y="721.992" width="167.622" height="167.622"/>
        <path class="cls-4" d="M528.368,722.492v166.621h-166.621v-166.621h166.621M529.368,721.492h-168.621v168.621h168.621v-168.621h0Z"/>
      </g>
      <g>
        <rect class="cls-3" x="541.619" y="721.992" width="167.622" height="167.622"/>
        <path class="cls-3" d="M708.741,722.492v166.621h-166.621v-166.621h166.621M709.741,721.492h-168.621v168.621h168.621v-168.621h0Z"/>
      </g>
      <g>
        <rect class="cls-6" x="721.992" y="721.992" width="167.622" height="167.622"/>
        <path class="cls-6" d="M889.114,722.492v166.621h-166.621v-166.621h166.621M890.114,721.492h-168.621v168.621h168.621v-168.621h0Z"/>
      </g>
      <g>
        <rect class="cls-2" x="902.366" y="721.992" width="167.622" height="167.622"/>
        <path class="cls-2" d="M1069.487,722.492v166.621h-166.621v-166.621h166.621M1070.487,721.492h-168.621v168.621h168.621v-168.621h0Z"/>
      </g>
      <g>
        <rect class="cls-5" x="1082.739" y="721.992" width="167.622" height="167.622"/>
        <path class="cls-5" d="M1249.86,722.492v166.621h-166.621v-166.621h166.621M1250.86,721.492h-168.621v168.621h168.621v-168.621h0Z"/>
      </g>
      <g>
        <rect class="cls-6" x="1263.112" y="721.992" width="167.622" height="167.622"/>
        <path class="cls-6" d="M1430.233,722.492v166.621h-166.621v-166.621h166.621M1431.233,721.492h-168.621v168.621h168.621v-168.621h0Z"/>
      </g>
      <g>
        <rect class="cls-3" x="1443.485" y="721.992" width="167.622" height="167.622"/>
        <path class="cls-3" d="M1610.606,722.492v166.621h-166.621v-166.621h166.621M1611.606,721.492h-168.621v168.621h168.621v-168.621h0Z"/>
      </g>
      <g>
        <rect class="cls-1" x="1623.858" y="721.992" width="167.622" height="167.622"/>
        <path class="cls-1" d="M1790.979,722.492v166.621h-166.621v-166.621h166.621M1791.979,721.492h-168.621v168.621h168.621v-168.621h0Z"/>
      </g>
      <g>
        <rect class="cls-5" x=".5" y="902.366" width="167.622" height="167.622"/>
        <path class="cls-5" d="M167.621,902.866v166.621H1v-166.621h166.621M168.621,901.866H0v168.621h168.621v-168.621h0Z"/>
      </g>
      <g>
        <rect class="cls-2" x="180.873" y="902.366" width="167.622" height="167.622"/>
        <path class="cls-2" d="M347.994,902.866v166.621h-166.621v-166.621h166.621M348.994,901.866h-168.621v168.621h168.621v-168.621h0Z"/>
      </g>
      <g>
        <rect class="cls-6" x="361.246" y="902.366" width="167.622" height="167.622"/>
        <path class="cls-6" d="M528.368,902.866v166.621h-166.621v-166.621h166.621M529.368,901.866h-168.621v168.621h168.621v-168.621h0Z"/>
      </g>
      <g>
        <rect class="cls-1" x="541.619" y="902.366" width="167.622" height="167.622"/>
        <path class="cls-1" d="M708.741,902.866v166.621h-166.621v-166.621h166.621M709.741,901.866h-168.621v168.621h168.621v-168.621h0Z"/>
      </g>
      <g>
        <rect class="cls-4" x="721.992" y="902.366" width="167.622" height="167.622"/>
        <path class="cls-4" d="M889.114,902.866v166.621h-166.621v-166.621h166.621M890.114,901.866h-168.621v168.621h168.621v-168.621h0Z"/>
      </g>
      <g>
        <rect class="cls-3" x="902.366" y="902.366" width="167.622" height="167.622"/>
        <path class="cls-3" d="M1069.487,902.866v166.621h-166.621v-166.621h166.621M1070.487,901.866h-168.621v168.621h168.621v-168.621h0Z"/>
      </g>
      <g>
        <rect class="cls-1" x="1082.739" y="902.366" width="167.622" height="167.622"/>
        <path class="cls-1" d="M1249.86,902.866v166.621h-166.621v-166.621h166.621M1250.86,901.866h-168.621v168.621h168.621v-168.621h0Z"/>
      </g>
      <g>
        <rect class="cls-4" x="1263.112" y="902.366" width="167.622" height="167.622"/>
        <path class="cls-4" d="M1430.233,902.866v166.621h-166.621v-166.621h166.621M1431.233,901.866h-168.621v168.621h168.621v-168.621h0Z"/>
      </g>
      <g>
        <rect class="cls-2" x="1443.485" y="902.366" width="167.622" height="167.622"/>
        <path class="cls-2" d="M1610.606,902.866v166.621h-166.621v-166.621h166.621M1611.606,901.866h-168.621v168.621h168.621v-168.621h0Z"/>
      </g>
      <g>
        <rect class="cls-6" x="1623.858" y="902.366" width="167.622" height="167.622"/>
        <path class="cls-6" d="M1790.979,902.866v166.621h-166.621v-166.621h166.621M1791.979,901.866h-168.621v168.621h168.621v-168.621h0Z"/>
      </g>
    </g>
  </g>
  <g id="Layer_2" data-name="Layer 2">
    <g>
      <g>
        <rect class="cls-4" x=".5" y=".5" width="167.622" height="167.622"/>
        <path class="cls-4" d="M167.621,1v166.621H1V1h166.621M168.621,0H0v168.621h168.621V0h0Z"/>
      </g>
      <g>
        <rect class="cls-1" x="180.873" y=".5" width="167.622" height="167.622"/>
        <path class="cls-1" d="M347.994,1v166.621h-166.621V1h166.621M348.994,0h-168.621v168.621h168.621V0h0Z"/>
      </g>
      <g>
        <rect class="cls-6" x="361.246" y=".5" width="167.622" height="167.622"/>
        <path class="cls-6" d="M528.368,1v166.621h-166.621V1h166.621M529.368,0h-168.621v168.621h168.621V0h0Z"/>
      </g>
      <g>
        <rect class="cls-3" x="541.619" y=".5" width="167.622" height="167.622"/>
        <path class="cls-3" d="M708.741,1v166.621h-166.621V1h166.621M709.741,0h-168.621v168.621h168.621V0h0Z"/>
      </g>
      <g>
        <rect class="cls-2" x="721.992" y=".5" width="167.622" height="167.622"/>
        <path class="cls-2" d="M889.114,1v166.621h-166.621V1h166.621M890.114,0h-168.621v168.621h168.621V0h0Z"/>
      </g>
      <g>
        <rect class="cls-6" x="902.366" y=".5" width="167.622" height="167.622"/>
        <path class="cls-6" d="M1069.487,1v166.621h-166.621V1h166.621M1070.487,0h-168.621v168.621h168.621V0h0Z"/>
      </g>
      <g>
        <rect class="cls-4" x="1082.739" y=".5" width="167.622" height="167.622"/>
        <path class="cls-4" d="M1249.86,1v166.621h-166.621V1h166.621M1250.86,0h-168.621v168.621h168.621V0h0Z"/>
      </g>
      <g>
        <rect class="cls-5" x="1263.112" y=".5" width="167.622" height="167.622"/>
        <path class="cls-5" d="M1430.233,1v166.621h-166.621V1h166.621M1431.233,0h-168.621v168.621h168.621V0h0Z"/>
      </g>
      <g>
        <rect class="cls-6" x="1443.485" y=".5" width="167.622" height="167.622"/>
        <path class="cls-6" d="M1610.606,1v166.621h-166.621V1h166.621M1611.606,0h-168.621v168.621h168.621V0h0Z"/>
      </g>
      <g>
        <rect class="cls-1" x="1623.858" y=".5" width="167.622" height="167.622"/>
        <path class="cls-1" d="M1790.979,1v166.621h-166.621V1h166.621M1791.979,0h-168.621v168.621h168.621V0h0Z"/>
      </g>
      <g>
        <rect class="cls-5" x=".5" y="180.873" width="167.622" height="167.622"/>
        <path class="cls-5" d="M167.621,181.373v166.621H1v-166.621h166.621M168.621,180.373H0v168.621h168.621v-168.621h0Z"/>
      </g>
      <g>
        <rect class="cls-2" x="180.873" y="180.873" width="167.622" height="167.622"/>
        <path class="cls-2" d="M347.994,181.373v166.621h-166.621v-166.621h166.621M348.994,180.373h-168.621v168.621h168.621v-168.621h0Z"/>
      </g>
      <g>
        <rect class="cls-4" x="361.246" y="180.873" width="167.622" height="167.622"/>
        <path class="cls-4" d="M528.368,181.373v166.621h-166.621v-166.621h166.621M529.368,180.373h-168.621v168.621h168.621v-168.621h0Z"/>
      </g>
      <g>
        <rect class="cls-5" x="541.619" y="180.873" width="167.622" height="167.622"/>
        <path class="cls-5" d="M708.741,181.373v166.621h-166.621v-166.621h166.621M709.741,180.373h-168.621v168.621h168.621v-168.621h0Z"/>
      </g>
      <g>
        <rect class="cls-1" x="721.992" y="180.873" width="167.622" height="167.622"/>
        <path class="cls-1" d="M889.114,181.373v166.621h-166.621v-166.621h166.621M890.114,180.373h-168.621v168.621h168.621v-168.621h0Z"/>
      </g>
      <g>
        <rect class="cls-5" x="902.366" y="180.873" width="167.622" height="167.622"/>
        <path class="cls-5" d="M1069.487,181.373v166.621h-166.621v-166.621h166.621M1070.487,180.373h-168.621v168.621h168.621v-168.621h0Z"/>
      </g>
      <g>
        <rect class="cls-3" x="1082.739" y="180.873" width="167.622" height="167.622"/>
        <path class="cls-3" d="M1249.86,181.373v166.621h-166.621v-166.621h166.621M1250.86,180.373h-168.621v168.621h168.621v-168.621h0Z"/>
      </g>
      <g>
        <rect class="cls-1" x="1263.112" y="180.873" width="167.622" height="167.622"/>
        <path class="cls-1" d="M1430.233,181.373v166.621h-166.621v-166.621h166.621M1431.233,180.373h-168.621v168.621h168.621v-168.621h0Z"/>
      </g>
      <g>
        <rect class="cls-2" x="1443.485" y="180.873" width="167.622" height="167.622"/>
        <path class="cls-2" d="M1610.606,181.373v166.621h-166.621v-166.621h166.621M1611.606,180.373h-168.621v168.621h168.621v-168.621h0Z"/>
      </g>
      <g>
        <rect class="cls-4" x="1623.858" y="180.873" width="167.622" height="167.622"/>
        <path class="cls-4" d="M1790.979,181.373v166.621h-166.621v-166.621h166.621M1791.979,180.373h-168.621v168.621h168.621v-168.621h0Z"/>
      </g>
      <g>
        <rect class="cls-1" x=".5" y="361.246" width="167.622" height="167.622"/>
        <path class="cls-1" d="M167.621,361.746v166.621H1v-166.621h166.621M168.621,360.746H0v168.621h168.621v-168.621h0Z"/>
      </g>
      <g>
        <rect class="cls-3" x="180.873" y="361.246" width="167.622" height="167.622"/>
        <path class="cls-3" d="M347.994,361.746v166.621h-166.621v-166.621h166.621M348.994,360.746h-168.621v168.621h168.621v-168.621h0Z"/>
      </g>
      <g>
        <rect class="cls-1" x="361.246" y="361.246" width="167.622" height="167.622"/>
        <path class="cls-1" d="M528.368,361.746v166.621h-166.621v-166.621h166.621M529.368,360.746h-168.621v168.621h168.621v-168.621h0Z"/>
      </g>
      <g>
        <rect class="cls-2" x="541.619" y="361.246" width="167.622" height="167.622"/>
        <path class="cls-2" d="M708.741,361.746v166.621h-166.621v-166.621h166.621M709.741,360.746h-168.621v168.621h168.621v-168.621h0Z"/>
      </g>
      <g>
        <rect class="cls-4" x="721.992" y="361.246" width="167.622" height="167.622"/>
        <path class="cls-4" d="M889.114,361.746v166.621h-166.621v-166.621h166.621M890.114,360.746h-168.621v168.621h168.621v-168.621h0Z"/>
      </g>
      <g>
        <rect class="cls-6" x="902.366" y="361.246" width="167.622" height="167.622"/>
        <path class="cls-6" d="M1069.487,361.746v166.621h-166.621v-166.621h166.621M1070.487,360.746h-168.621v168.621h168.621v-168.621h0Z"/>
      </g>
      <g>
        <rect class="cls-2" x="1082.739" y="361.246" width="167.622" height="167.622"/>
        <path class="cls-2" d="M1249.86,361.746v166.621h-166.621v-166.621h166.621M1250.86,360.746h-168.621v168.621h168.621v-168.621h0Z"/>
      </g>
      <g>
        <rect class="cls-4" x="1263.112" y="361.246" width="167.622" height="167.622"/>
        <path class="cls-4" d="M1430.233,361.746v166.621h-166.621v-166.621h166.621M1431.233,360.746h-168.621v168.621h168.621v-168.621h0Z"/>
      </g>
      <g>
        <rect class="cls-5" x="1443.485" y="361.246" width="167.622" height="167.622"/>
        <path class="cls-5" d="M1610.606,361.746v166.621h-166.621v-166.621h166.621M1611.606,360.746h-168.621v168.621h168.621v-168.621h0Z"/>
      </g>
      <g>
        <rect class="cls-3" x="1623.858" y="361.246" width="167.622" height="167.622"/>
        <path class="cls-3" d="M1790.979,361.746v166.621h-166.621v-166.621h166.621M1791.979,360.746h-168.621v168.621h168.621v-168.621h0Z"/>
      </g>
      <g>
        <rect class="cls-6" x=".5" y="541.619" width="167.622" height="167.622"/>
        <path class="cls-6" d="M167.621,542.119v166.621H1v-166.621h166.621M168.621,541.119H0v168.621h168.621v-168.621h0Z"/>
      </g>
      <g>
        <rect class="cls-4" x="180.873" y="541.619" width="167.622" height="167.622"/>
        <path class="cls-4" d="M347.994,542.119v166.621h-166.621v-166.621h166.621M348.994,541.119h-168.621v168.621h168.621v-168.621h0Z"/>
      </g>
      <g>
        <rect class="cls-6" x="361.246" y="541.619" width="167.622" height="167.622"/>
        <path class="cls-6" d="M528.368,542.119v166.621h-166.621v-166.621h166.621M529.368,541.119h-168.621v168.621h168.621v-168.621h0Z"/>
      </g>
      <g>
        <rect class="cls-3" x="541.619" y="541.619" width="167.622" height="167.622"/>
        <path class="cls-3" d="M708.741,542.119v166.621h-166.621v-166.621h166.621M709.741,541.119h-168.621v168.621h168.621v-168.621h0Z"/>
      </g>
      <g>
        <rect class="cls-5" x="721.992" y="541.619" width="167.622" height="167.622"/>
        <path class="cls-5" d="M889.114,542.119v166.621h-166.621v-166.621h166.621M890.114,541.119h-168.621v168.621h168.621v-168.621h0Z"/>
      </g>
      <g>
        <rect class="cls-1" x="902.366" y="541.619" width="167.622" height="167.622"/>
        <path class="cls-1" d="M1069.487,542.119v166.621h-166.621v-166.621h166.621M1070.487,541.119h-168.621v168.621h168.621v-168.621h0Z"/>
      </g>
      <g>
        <rect class="cls-5" x="1082.739" y="541.619" width="167.622" height="167.622"/>
        <path class="cls-5" d="M1249.86,542.119v166.621h-166.621v-166.621h166.621M1250.86,541.119h-168.621v168.621h168.621v-168.621h0Z"/>
      </g>
      <g>
        <rect class="cls-6" x="1263.112" y="541.619" width="167.622" height="167.622"/>
        <path class="cls-6" d="M1430.233,542.119v166.621h-166.621v-166.621h166.621M1431.233,541.119h-168.621v168.621h168.621v-168.621h0Z"/>
      </g>
      <g>
        <rect class="cls-1" x="1443.485" y="541.619" width="167.622" height="167.622"/>
        <path class="cls-1" d="M1610.606,542.119v166.621h-166.621v-166.621h166.621M1611.606,541.119h-168.621v168.621h168.621v-168.621h0Z"/>
      </g>
      <g>
        <rect class="cls-6" x="1623.858" y="541.619" width="167.622" height="167.622"/>
        <path class="cls-6" d="M1790.979,542.119v166.621h-166.621v-166.621h166.621M1791.979,541.119h-168.621v168.621h168.621v-168.621h0Z"/>
      </g>
      <g>
        <rect class="cls-2" x=".5" y="721.992" width="167.622" height="167.622"/>
        <path class="cls-2" d="M167.621,722.492v166.621H1v-166.621h166.621M168.621,721.492H0v168.621h168.621v-168.621h0Z"/>
      </g>
      <g>
        <rect class="cls-5" x="180.873" y="721.992" width="167.622" height="167.622"/>
        <path class="cls-5" d="M347.994,722.492v166.621h-166.621v-166.621h166.621M348.994,721.492h-168.621v168.621h168.621v-168.621h0Z"/>
      </g>
      <g>
        <rect class="cls-1" x="361.246" y="721.992" width="167.622" height="167.622"/>
        <path class="cls-1" d="M528.368,722.492v166.621h-166.621v-166.621h166.621M529.368,721.492h-168.621v168.621h168.621v-168.621h0Z"/>
      </g>
      <g>
        <rect class="cls-4" x="541.619" y="721.992" width="167.622" height="167.622"/>
        <path class="cls-4" d="M708.741,722.492v166.621h-166.621v-166.621h166.621M709.741,721.492h-168.621v168.621h168.621v-168.621h0Z"/>
      </g>
      <g>
        <rect class="cls-2" x="721.992" y="721.992" width="167.622" height="167.622"/>
        <path class="cls-2" d="M889.114,722.492v166.621h-166.621v-166.621h166.621M890.114,721.492h-168.621v168.621h168.621v-168.621h0Z"/>
      </g>
      <g>
        <rect class="cls-6" x="902.366" y="721.992" width="167.622" height="167.622"/>
        <path class="cls-6" d="M1069.487,722.492v166.621h-166.621v-166.621h166.621M1070.487,721.492h-168.621v168.621h168.621v-168.621h0Z"/>
      </g>
      <g>
        <rect class="cls-3" x="1082.739" y="721.992" width="167.622" height="167.622"/>
        <path class="cls-3" d="M1249.86,722.492v166.621h-166.621v-166.621h166.621M1250.86,721.492h-168.621v168.621h168.621v-168.621h0Z"/>
      </g>
      <g>
        <rect class="cls-2" x="1263.112" y="721.992" width="167.622" height="167.622"/>
        <path class="cls-2" d="M1430.233,722.492v166.621h-166.621v-166.621h166.621M1431.233,721.492h-168.621v168.621h168.621v-168.621h0Z"/>
      </g>
      <g>
        <rect class="cls-4" x="1443.485" y="721.992" width="167.622" height="167.622"/>
        <path class="cls-4" d="M1610.606,722.492v166.621h-166.621v-166.621h166.621M1611.606,721.492h-168.621v168.621h168.621v-168.621h0Z"/>
      </g>
      <g>
        <rect class="cls-5" x="1623.858" y="721.992" width="167.622" height="167.622"/>
        <path class="cls-5" d="M1790.979,722.492v166.621h-166.621v-166.621h166.621M1791.979,721.492h-168.621v168.621h168.621v-168.621h0Z"/>
      </g>
      <g>
        <rect class="cls-3" x=".5" y="902.366" width="167.622" height="167.622"/>
        <path class="cls-3" d="M167.621,902.866v166.621H1v-166.621h166.621M168.621,901.866H0v168.621h168.621v-168.621h0Z"/>
      </g>
      <g>
        <rect class="cls-6" x="180.873" y="902.366" width="167.622" height="167.622"/>
        <path class="cls-6" d="M347.994,902.866v166.621h-166.621v-166.621h166.621M348.994,901.866h-168.621v168.621h168.621v-168.621h0Z"/>
      </g>
      <g>
        <rect class="cls-2" x="361.246" y="902.366" width="167.622" height="167.622"/>
        <path class="cls-2" d="M528.368,902.866v166.621h-166.621v-166.621h166.621M529.368,901.866h-168.621v168.621h168.621v-168.621h0Z"/>
      </g>
      <g>
        <rect class="cls-5" x="541.619" y="902.366" width="167.622" height="167.622"/>
        <path class="cls-5" d="M708.741,902.866v166.621h-166.621v-166.621h166.621M709.741,901.866h-168.621v168.621h168.621v-168.621h0Z"/>
      </g>
      <g>
        <rect class="cls-1" x="721.992" y="902.366" width="167.622" height="167.622"/>
        <path class="cls-1" d="M889.114,902.866v166.621h-166.621v-166.621h166.621M890.114,901.866h-168.621v168.621h168.621v-168.621h0Z"/>
      </g>
      <g>
        <rect class="cls-4" x="902.366" y="902.366" width="167.622" height="167.622"/>
        <path class="cls-4" d="M1069.487,902.866v166.621h-166.621v-166.621h166.621M1070.487,901.866h-168.621v168.621h168.621v-168.621h0Z"/>
      </g>
      <g>
        <rect class="cls-5" x="1082.739" y="902.366" width="167.622" height="167.622"/>
        <path class="cls-5" d="M1249.86,902.866v166.621h-166.621v-166.621h166.621M1250.86,901.866h-168.621v168.621h168.621v-168.621h0Z"/>
      </g>
      <g>
        <rect class="cls-1" x="1263.112" y="902.366" width="167.622" height="167.622"/>
        <path class="cls-1" d="M1430.233,902.866v166.621h-166.621v-166.621h166.621M1431.233,901.866h-168.621v168.621h168.621v-168.621h0Z"/>
      </g>
      <g>
        <rect class="cls-6" x="1443.485" y="902.366" width="167.622" height="167.622"/>
        <path class="cls-6" d="M1610.606,902.866v166.621h-166.621v-166.621h166.621M1611.606,901.866h-168.621v168.621h168.621v-168.621h0Z"/>
      </g>
      <g>
        <rect class="cls-2" x="1623.858" y="902.366" width="167.622" height="167.622"/>
        <path class="cls-2" d="M1790.979,902.866v166.621h-166.621v-166.621h166.621M1791.979,901.866h-168.621v168.621h168.621v-168.621h0Z"/>
      </g>
    </g>
  </g>
  <g id="Layer_3" data-name="Layer 3">
    <g>
      <g>
        <rect class="cls-2" x=".5" y=".5" width="167.622" height="167.622"/>
        <path class="cls-2" d="M167.621,1v166.621H1V1h166.621M168.621,0H0v168.621h168.621V0h0Z"/>
      </g>
      <g>
        <rect class="cls-5" x="180.873" y=".5" width="167.622" height="167.622"/>
        <path class="cls-5" d="M347.994,1v166.621h-166.621V1h166.621M348.994,0h-168.621v168.621h168.621V0h0Z"/>
      </g>
      <g>
        <rect class="cls-4" x="361.246" y=".5" width="167.622" height="167.622"/>
        <path class="cls-4" d="M528.368,1v166.621h-166.621V1h166.621M529.368,0h-168.621v168.621h168.621V0h0Z"/>
      </g>
      <g>
        <rect class="cls-1" x="541.619" y=".5" width="167.622" height="167.622"/>
        <path class="cls-1" d="M708.741,1v166.621h-166.621V1h166.621M709.741,0h-168.621v168.621h168.621V0h0Z"/>
      </g>
      <g>
        <rect class="cls-3" x="721.992" y=".5" width="167.622" height="167.622"/>
        <path class="cls-3" d="M889.114,1v166.621h-166.621V1h166.621M890.114,0h-168.621v168.621h168.621V0h0Z"/>
      </g>
      <g>
        <rect class="cls-4" x="902.366" y=".5" width="167.622" height="167.622"/>
        <path class="cls-4" d="M1069.487,1v166.621h-166.621V1h166.621M1070.487,0h-168.621v168.621h168.621V0h0Z"/>
      </g>
      <g>
        <rect class="cls-2" x="1082.739" y=".5" width="167.622" height="167.622"/>
        <path class="cls-2" d="M1249.86,1v166.621h-166.621V1h166.621M1250.86,0h-168.621v168.621h168.621V0h0Z"/>
      </g>
      <g>
        <rect class="cls-6" x="1263.112" y=".5" width="167.622" height="167.622"/>
        <path class="cls-6" d="M1430.233,1v166.621h-166.621V1h166.621M1431.233,0h-168.621v168.621h168.621V0h0Z"/>
      </g>
      <g>
        <rect class="cls-4" x="1443.485" y=".5" width="167.622" height="167.622"/>
        <path class="cls-4" d="M1610.606,1v166.621h-166.621V1h166.621M1611.606,0h-168.621v168.621h168.621V0h0Z"/>
      </g>
      <g>
        <rect class="cls-5" x="1623.858" y=".5" width="167.622" height="167.622"/>
        <path class="cls-5" d="M1790.979,1v166.621h-166.621V1h166.621M1791.979,0h-168.621v168.621h168.621V0h0Z"/>
      </g>
      <g>
        <rect class="cls-6" x=".5" y="180.873" width="167.622" height="167.622"/>
        <path class="cls-6" d="M167.621,181.373v166.621H1v-166.621h166.621M168.621,180.373H0v168.621h168.621v-168.621h0Z"/>
      </g>
      <g>
        <rect class="cls-3" x="180.873" y="180.873" width="167.622" height="167.622"/>
        <path class="cls-3" d="M347.994,181.373v166.621h-166.621v-166.621h166.621M348.994,180.373h-168.621v168.621h168.621v-168.621h0Z"/>
      </g>
      <g>
        <rect class="cls-2" x="361.246" y="180.873" width="167.622" height="167.622"/>
        <path class="cls-2" d="M528.368,181.373v166.621h-166.621v-166.621h166.621M529.368,180.373h-168.621v168.621h168.621v-168.621h0Z"/>
      </g>
      <g>
        <rect class="cls-6" x="541.619" y="180.873" width="167.622" height="167.622"/>
        <path class="cls-6" d="M708.741,181.373v166.621h-166.621v-166.621h166.621M709.741,180.373h-168.621v168.621h168.621v-168.621h0Z"/>
      </g>
      <g>
        <rect class="cls-5" x="721.992" y="180.873" width="167.622" height="167.622"/>
        <path class="cls-5" d="M889.114,181.373v166.621h-166.621v-166.621h166.621M890.114,180.373h-168.621v168.621h168.621v-168.621h0Z"/>
      </g>
      <g>
        <rect class="cls-6" x="902.366" y="180.873" width="167.622" height="167.622"/>
        <path class="cls-6" d="M1069.487,181.373v166.621h-166.621v-166.621h166.621M1070.487,180.373h-168.621v168.621h168.621v-168.621h0Z"/>
      </g>
      <g>
        <rect class="cls-1" x="1082.739" y="180.873" width="167.622" height="167.622"/>
        <path class="cls-1" d="M1249.86,181.373v166.621h-166.621v-166.621h166.621M1250.86,180.373h-168.621v168.621h168.621v-168.621h0Z"/>
      </g>
      <g>
        <rect class="cls-5" x="1263.112" y="180.873" width="167.622" height="167.622"/>
        <path class="cls-5" d="M1430.233,181.373v166.621h-166.621v-166.621h166.621M1431.233,180.373h-168.621v168.621h168.621v-168.621h0Z"/>
      </g>
      <g>
        <rect class="cls-3" x="1443.485" y="180.873" width="167.622" height="167.622"/>
        <path class="cls-3" d="M1610.606,181.373v166.621h-166.621v-166.621h166.621M1611.606,180.373h-168.621v168.621h168.621v-168.621h0Z"/>
      </g>
      <g>
        <rect class="cls-2" x="1623.858" y="180.873" width="167.622" height="167.622"/>
        <path class="cls-2" d="M1790.979,181.373v166.621h-166.621v-166.621h166.621M1791.979,180.373h-168.621v168.621h168.621v-168.621h0Z"/>
      </g>
      <g>
        <rect class="cls-5" x=".5" y="361.246" width="167.622" height="167.622"/>
        <path class="cls-5" d="M167.621,361.746v166.621H1v-166.621h166.621M168.621,360.746H0v168.621h168.621v-168.621h0Z"/>
      </g>
      <g>
        <rect class="cls-1" x="180.873" y="361.246" width="167.622" height="167.622"/>
        <path class="cls-1" d="M347.994,361.746v166.621h-166.621v-166.621h166.621M348.994,360.746h-168.621v168.621h168.621v-168.621h0Z"/>
      </g>
      <g>
        <rect class="cls-5" x="361.246" y="361.246" width="167.622" height="167.622"/>
        <path class="cls-5" d="M528.368,361.746v166.621h-166.621v-166.621h166.621M529.368,360.746h-168.621v168.621h168.621v-168.621h0Z"/>
      </g>
      <g>
        <rect class="cls-3" x="541.619" y="361.246" width="167.622" height="167.622"/>
        <path class="cls-3" d="M708.741,361.746v166.621h-166.621v-166.621h166.621M709.741,360.746h-168.621v168.621h168.621v-168.621h0Z"/>
      </g>
      <g>
        <rect class="cls-2" x="721.992" y="361.246" width="167.622" height="167.622"/>
        <path class="cls-2" d="M889.114,361.746v166.621h-166.621v-166.621h166.621M890.114,360.746h-168.621v168.621h168.621v-168.621h0Z"/>
      </g>
      <g>
        <rect class="cls-4" x="902.366" y="361.246" width="167.622" height="167.622"/>
        <path class="cls-4" d="M1069.487,361.746v166.621h-166.621v-166.621h166.621M1070.487,360.746h-168.621v168.621h168.621v-168.621h0Z"/>
      </g>
      <g>
        <rect class="cls-3" x="1082.739" y="361.246" width="167.622" height="167.622"/>
        <path class="cls-3" d="M1249.86,361.746v166.621h-166.621v-166.621h166.621M1250.86,360.746h-168.621v168.621h168.621v-168.621h0Z"/>
      </g>
      <g>
        <rect class="cls-2" x="1263.112" y="361.246" width="167.622" height="167.622"/>
        <path class="cls-2" d="M1430.233,361.746v166.621h-166.621v-166.621h166.621M1431.233,360.746h-168.621v168.621h168.621v-168.621h0Z"/>
      </g>
      <g>
        <rect class="cls-6" x="1443.485" y="361.246" width="167.622" height="167.622"/>
        <path class="cls-6" d="M1610.606,361.746v166.621h-166.621v-166.621h166.621M1611.606,360.746h-168.621v168.621h168.621v-168.621h0Z"/>
      </g>
      <g>
        <rect class="cls-1" x="1623.858" y="361.246" width="167.622" height="167.622"/>
        <path class="cls-1" d="M1790.979,361.746v166.621h-166.621v-166.621h166.621M1791.979,360.746h-168.621v168.621h168.621v-168.621h0Z"/>
      </g>
      <g>
        <rect class="cls-4" x=".5" y="541.619" width="167.622" height="167.622"/>
        <path class="cls-4" d="M167.621,542.119v166.621H1v-166.621h166.621M168.621,541.119H0v168.621h168.621v-168.621h0Z"/>
      </g>
      <g>
        <rect class="cls-2" x="180.873" y="541.619" width="167.622" height="167.622"/>
        <path class="cls-2" d="M347.994,542.119v166.621h-166.621v-166.621h166.621M348.994,541.119h-168.621v168.621h168.621v-168.621h0Z"/>
      </g>
      <g>
        <rect class="cls-4" x="361.246" y="541.619" width="167.622" height="167.622"/>
        <path class="cls-4" d="M528.368,542.119v166.621h-166.621v-166.621h166.621M529.368,541.119h-168.621v168.621h168.621v-168.621h0Z"/>
      </g>
      <g>
        <rect class="cls-1" x="541.619" y="541.619" width="167.622" height="167.622"/>
        <path class="cls-1" d="M708.741,542.119v166.621h-166.621v-166.621h166.621M709.741,541.119h-168.621v168.621h168.621v-168.621h0Z"/>
      </g>
      <g>
        <rect class="cls-6" x="721.992" y="541.619" width="167.622" height="167.622"/>
        <path class="cls-6" d="M889.114,542.119v166.621h-166.621v-166.621h166.621M890.114,541.119h-168.621v168.621h168.621v-168.621h0Z"/>
      </g>
      <g>
        <rect class="cls-5" x="902.366" y="541.619" width="167.622" height="167.622"/>
        <path class="cls-5" d="M1069.487,542.119v166.621h-166.621v-166.621h166.621M1070.487,541.119h-168.621v168.621h168.621v-168.621h0Z"/>
      </g>
      <g>
        <rect class="cls-6" x="1082.739" y="541.619" width="167.622" height="167.622"/>
        <path class="cls-6" d="M1249.86,542.119v166.621h-166.621v-166.621h166.621M1250.86,541.119h-168.621v168.621h168.621v-168.621h0Z"/>
      </g>
      <g>
        <rect class="cls-4" x="1263.112" y="541.619" width="167.622" height="167.622"/>
        <path class="cls-4" d="M1430.233,542.119v166.621h-166.621v-166.621h166.621M1431.233,541.119h-168.621v168.621h168.621v-168.621h0Z"/>
      </g>
      <g>
        <rect class="cls-5" x="1443.485" y="541.619" width="167.622" height="167.622"/>
        <path class="cls-5" d="M1610.606,542.119v166.621h-166.621v-166.621h166.621M1611.606,541.119h-168.621v168.621h168.621v-168.621h0Z"/>
      </g>
      <g>
        <rect class="cls-4" x="1623.858" y="541.619" width="167.622" height="167.622"/>
        <path class="cls-4" d="M1790.979,542.119v166.621h-166.621v-166.621h166.621M1791.979,541.119h-168.621v168.621h168.621v-168.621h0Z"/>
      </g>
      <g>
        <rect class="cls-3" x=".5" y="721.992" width="167.622" height="167.622"/>
        <path class="cls-3" d="M167.621,722.492v166.621H1v-166.621h166.621M168.621,721.492H0v168.621h168.621v-168.621h0Z"/>
      </g>
      <g>
        <rect class="cls-6" x="180.873" y="721.992" width="167.622" height="167.622"/>
        <path class="cls-6" d="M347.994,722.492v166.621h-166.621v-166.621h166.621M348.994,721.492h-168.621v168.621h168.621v-168.621h0Z"/>
      </g>
      <g>
        <rect class="cls-5" x="361.246" y="721.992" width="167.622" height="167.622"/>
        <path class="cls-5" d="M528.368,722.492v166.621h-166.621v-166.621h166.621M529.368,721.492h-168.621v168.621h168.621v-168.621h0Z"/>
      </g>
      <g>
        <rect class="cls-2" x="541.619" y="721.992" width="167.622" height="167.622"/>
        <path class="cls-2" d="M708.741,722.492v166.621h-166.621v-166.621h166.621M709.741,721.492h-168.621v168.621h168.621v-168.621h0Z"/>
      </g>
      <g>
        <rect class="cls-3" x="721.992" y="721.992" width="167.622" height="167.622"/>
        <path class="cls-3" d="M889.114,722.492v166.621h-166.621v-166.621h166.621M890.114,721.492h-168.621v168.621h168.621v-168.621h0Z"/>
      </g>
      <g>
        <rect class="cls-4" x="902.366" y="721.992" width="167.622" height="167.622"/>
        <path class="cls-4" d="M1069.487,722.492v166.621h-166.621v-166.621h166.621M1070.487,721.492h-168.621v168.621h168.621v-168.621h0Z"/>
      </g>
      <g>
        <rect class="cls-1" x="1082.739" y="721.992" width="167.622" height="167.622"/>
        <path class="cls-1" d="M1249.86,722.492v166.621h-166.621v-166.621h166.621M1250.86,721.492h-168.621v168.621h168.621v-168.621h0Z"/>
      </g>
      <g>
        <rect class="cls-3" x="1263.112" y="721.992" width="167.622" height="167.622"/>
        <path class="cls-3" d="M1430.233,722.492v166.621h-166.621v-166.621h166.621M1431.233,721.492h-168.621v168.621h168.621v-168.621h0Z"/>
      </g>
      <g>
        <rect class="cls-2" x="1443.485" y="721.992" width="167.622" height="167.622"/>
        <path class="cls-2" d="M1610.606,722.492v166.621h-166.621v-166.621h166.621M1611.606,721.492h-168.621v168.621h168.621v-168.621h0Z"/>
      </g>
      <g>
        <rect class="cls-6" x="1623.858" y="721.992" width="167.622" height="167.622"/>
        <path class="cls-6" d="M1790.979,722.492v166.621h-166.621v-166.621h166.621M1791.979,721.492h-168.621v168.621h168.621v-168.621h0Z"/>
      </g>
      <g>
        <rect class="cls-1" x=".5" y="902.366" width="167.622" height="167.622"/>
        <path class="cls-1" d="M167.621,902.866v166.621H1v-166.621h166.621M168.621,901.866H0v168.621h168.621v-168.621h0Z"/>
      </g>
      <g>
        <rect class="cls-4" x="180.873" y="902.366" width="167.622" height="167.622"/>
        <path class="cls-4" d="M347.994,902.866v166.621h-166.621v-166.621h166.621M348.994,901.866h-168.621v168.621h168.621v-168.621h0Z"/>
      </g>
      <g>
        <rect class="cls-3" x="361.246" y="902.366" width="167.622" height="167.622"/>
        <path class="cls-3" d="M528.368,902.866v166.621h-166.621v-166.621h166.621M529.368,901.866h-168.621v168.621h168.621v-168.621h0Z"/>
      </g>
      <g>
        <rect class="cls-6" x="541.619" y="902.366" width="167.622" height="167.622"/>
        <path class="cls-6" d="M708.741,902.866v166.621h-166.621v-166.621h166.621M709.741,901.866h-168.621v168.621h168.621v-168.621h0Z"/>
      </g>
      <g>
        <rect class="cls-5" x="721.992" y="902.366" width="167.622" height="167.622"/>
        <path class="cls-5" d="M889.114,902.866v166.621h-166.621v-166.621h166.621M890.114,901.866h-168.621v168.621h168.621v-168.621h0Z"/>
      </g>
      <g>
        <rect class="cls-2" x="902.366" y="902.366" width="167.622" height="167.622"/>
        <path class="cls-2" d="M1069.487,902.866v166.621h-166.621v-166.621h166.621M1070.487,901.866h-168.621v168.621h168.621v-168.621h0Z"/>
      </g>
      <g>
        <rect class="cls-6" x="1082.739" y="902.366" width="167.622" height="167.622"/>
        <path class="cls-6" d="M1249.86,902.866v166.621h-166.621v-166.621h166.621M1250.86,901.866h-168.621v168.621h168.621v-168.621h0Z"/>
      </g>
      <g>
        <rect class="cls-5" x="1263.112" y="902.366" width="167.622" height="167.622"/>
        <path class="cls-5" d="M1430.233,902.866v166.621h-166.621v-166.621h166.621M1431.233,901.866h-168.621v168.621h168.621v-168.621h0Z"/>
      </g>
      <g>
        <rect class="cls-4" x="1443.485" y="902.366" width="167.622" height="167.622"/>
        <path class="cls-4" d="M1610.606,902.866v166.621h-166.621v-166.621h166.621M1611.606,901.866h-168.621v168.621h168.621v-168.621h0Z"/>
      </g>
      <g>
        <rect class="cls-3" x="1623.858" y="902.366" width="167.622" height="167.622"/>
        <path class="cls-3" d="M1790.979,902.866v166.621h-166.621v-166.621h166.621M1791.979,901.866h-168.621v168.621h168.621v-168.621h0Z"/>
      </g>
    </g>
  </g>
</svg>